<svg xmlns="http://www.w3.org/2000/svg" viewBox="0 0 393.53 401.36"><defs><style>.cls-1{fill:#662483;}.cls-2{fill:#f49f80;}.cls-3{fill:#fddfbc;}.cls-4{fill:#1d1d1b;}.cls-5{fill:none;stroke:#1d1d1b;stroke-miterlimit:10;stroke-width:25.51px;}</style></defs><g id="Calque_2" data-name="Calque 2"><g id="Calque_1-2" data-name="Calque 1"><polygon class="cls-1" points="374.81 308.09 374.81 377.88 278.3 377.88 278.3 390.13 25.27 390.13 25.27 23.88 184.85 23.88 184.85 105.2 210.67 105.2 210.67 211.71 278.3 211.71 278.3 308.09 374.81 308.09"/><rect class="cls-2" x="37.02" y="36.77" width="127.4" height="49.85"/><rect class="cls-2" x="37.02" y="133.76" width="173.65" height="49.85"/><rect class="cls-3" x="25.27" y="124.4" width="185.4" height="12.89"/><rect class="cls-3" x="31.15" y="23.87" width="153.7" height="12.89"/><rect class="cls-2" x="37.02" y="220.63" width="222.38" height="49.85"/><rect class="cls-2" x="37.02" y="318.03" width="337.79" height="49.85"/><rect class="cls-1" x="112.98" y="318.03" width="10.87" height="49.85"/><rect class="cls-1" x="196.77" y="318.03" width="10.87" height="49.85"/><rect class="cls-1" x="112.98" y="230.09" width="10.87" height="41.89"/><rect class="cls-3" x="25.27" y="217.19" width="234.13" height="12.89"/><rect class="cls-3" x="25.27" y="307.5" width="345.45" height="12.89"/><path class="cls-4" d="M339.28,25.51A28.78,28.78,0,0,1,368,54.26V347.11a28.77,28.77,0,0,1-28.74,28.74h-285a28.78,28.78,0,0,1-28.75-28.74V54.26A28.79,28.79,0,0,1,54.26,25.51h285m0-25.51h-285A54.26,54.26,0,0,0,0,54.26V347.11a54.25,54.25,0,0,0,54.26,54.25h285a54.25,54.25,0,0,0,54.25-54.25V54.26A54.25,54.25,0,0,0,339.28,0Z"/><line class="cls-5" x1="25.27" y1="111.96" x2="246.64" y2="111.96"/><line class="cls-5" x1="25.27" y1="205.4" x2="281.87" y2="205.4"/><line class="cls-5" x1="25.27" y1="294.26" x2="317.87" y2="294.26"/><line class="cls-5" x1="100.34" y1="396.13" x2="100.34" y2="197.11"/><line class="cls-5" x1="184.85" y1="399.71" x2="184.85" y2="290.04"/><line class="cls-5" x1="269.87" y1="302.43" x2="269.87" y2="192.77"/><line class="cls-5" x1="177.19" y1="111.96" x2="177.19" y2="2.29"/><line class="cls-5" x1="100.34" y1="145.66" x2="100.34" y2="103.15"/><line class="cls-5" x1="355.4" y1="308.09" x2="355.4" y2="258.89"/><line class="cls-5" x1="307.14" y1="218.54" x2="324.03" y2="201.65"/><line class="cls-5" x1="289.1" y1="156.25" x2="309.48" y2="135.86"/><line class="cls-5" x1="328.42" y1="116.93" x2="343.86" y2="101.48"/><line class="cls-5" x1="238.92" y1="72.67" x2="256.9" y2="54.69"/><polyline class="cls-5" points="223.83 137.3 223.83 167.48 197.52 180.5 197.52 217.19"/></g></g></svg>